<?xml version="1.0" encoding="utf-8"?>
<svg xmlns="http://www.w3.org/2000/svg" fill="none" height="1128" viewBox="0 0 1041 1128" width="1041">
<g style="mix-blend-mode:lighten">
<path clip-rule="evenodd" d="M550.054 1125.65L-653.009 331.439L-651.141 328.61L551.922 1122.82L550.054 1125.65Z" fill="white" fill-rule="evenodd"/>
<path clip-rule="evenodd" d="M550.054 1125.65L-653.009 331.439L-651.141 328.61L551.922 1122.82L550.054 1125.65Z" fill="url(#paint0_linear_3009_7600)" fill-rule="evenodd"/>
<path clip-rule="evenodd" d="M550.054 1125.65L-653.009 331.439L-651.141 328.61L551.922 1122.82L550.054 1125.65Z" fill="url(#paint1_linear_3009_7600)" fill-rule="evenodd"/>
<path clip-rule="evenodd" d="M552.705 1120.94L-624.746 284.332L-622.782 281.568L554.669 1118.18L552.705 1120.94Z" fill="white" fill-rule="evenodd"/>
<path clip-rule="evenodd" d="M552.705 1120.94L-624.746 284.332L-622.782 281.568L554.669 1118.18L552.705 1120.94Z" fill="url(#paint2_linear_3009_7600)" fill-rule="evenodd"/>
<path clip-rule="evenodd" d="M552.705 1120.94L-624.746 284.332L-622.782 281.568L554.669 1118.18L552.705 1120.94Z" fill="url(#paint3_linear_3009_7600)" fill-rule="evenodd"/>
<path clip-rule="evenodd" d="M555.339 1116.27L-596.481 237.223L-594.424 234.529L557.397 1113.57L555.339 1116.27Z" fill="white" fill-rule="evenodd"/>
<path clip-rule="evenodd" d="M555.339 1116.27L-596.481 237.223L-594.424 234.529L557.397 1113.57L555.339 1116.27Z" fill="url(#paint4_linear_3009_7600)" fill-rule="evenodd"/>
<path clip-rule="evenodd" d="M555.339 1116.27L-596.481 237.223L-594.424 234.529L557.397 1113.57L555.339 1116.27Z" fill="url(#paint5_linear_3009_7600)" fill-rule="evenodd"/>
<path clip-rule="evenodd" d="M557.976 1111.59L-568.198 190.083L-566.05 187.46L560.123 1108.97L557.976 1111.59Z" fill="white" fill-rule="evenodd"/>
<path clip-rule="evenodd" d="M557.976 1111.59L-568.198 190.083L-566.05 187.46L560.123 1108.97L557.976 1111.59Z" fill="url(#paint6_linear_3009_7600)" fill-rule="evenodd"/>
<path clip-rule="evenodd" d="M557.976 1111.59L-568.198 190.083L-566.05 187.46L560.123 1108.97L557.976 1111.59Z" fill="url(#paint7_linear_3009_7600)" fill-rule="evenodd"/>
<path clip-rule="evenodd" d="M560.614 1106.91L-539.93 142.973L-537.695 140.423L562.848 1104.36L560.614 1106.91Z" fill="white" fill-rule="evenodd"/>
<path clip-rule="evenodd" d="M560.614 1106.91L-539.93 142.973L-537.695 140.423L562.848 1104.36L560.614 1106.91Z" fill="url(#paint8_linear_3009_7600)" fill-rule="evenodd"/>
<path clip-rule="evenodd" d="M560.614 1106.91L-539.93 142.973L-537.695 140.423L562.848 1104.36L560.614 1106.91Z" fill="url(#paint9_linear_3009_7600)" fill-rule="evenodd"/>
<path clip-rule="evenodd" d="M563.271 1102.2L-511.66 95.8605L-509.342 93.3862L565.589 1099.73L563.271 1102.2Z" fill="white" fill-rule="evenodd"/>
<path clip-rule="evenodd" d="M563.271 1102.2L-511.66 95.8605L-509.342 93.3862L565.589 1099.73L563.271 1102.2Z" fill="url(#paint10_linear_3009_7600)" fill-rule="evenodd"/>
<path clip-rule="evenodd" d="M563.271 1102.2L-511.66 95.8605L-509.342 93.3862L565.589 1099.73L563.271 1102.2Z" fill="url(#paint11_linear_3009_7600)" fill-rule="evenodd"/>
<path clip-rule="evenodd" d="M565.913 1097.52L-483.389 48.7478L-480.991 46.3506L568.31 1095.12L565.913 1097.52Z" fill="white" fill-rule="evenodd"/>
<path clip-rule="evenodd" d="M565.913 1097.52L-483.389 48.7478L-480.991 46.3506L568.31 1095.12L565.913 1097.52Z" fill="url(#paint12_linear_3009_7600)" fill-rule="evenodd"/>
<path clip-rule="evenodd" d="M565.913 1097.52L-483.389 48.7478L-480.991 46.3506L568.31 1095.12L565.913 1097.52Z" fill="url(#paint13_linear_3009_7600)" fill-rule="evenodd"/>
<path clip-rule="evenodd" d="M568.556 1092.84L-455.098 1.60437L-452.624 -0.714302L571.03 1090.52L568.556 1092.84Z" fill="white" fill-rule="evenodd"/>
<path clip-rule="evenodd" d="M568.556 1092.84L-455.098 1.60437L-452.624 -0.714302L571.03 1090.52L568.556 1092.84Z" fill="url(#paint14_linear_3009_7600)" fill-rule="evenodd"/>
<path clip-rule="evenodd" d="M568.556 1092.84L-455.098 1.60437L-452.624 -0.714302L571.03 1090.52L568.556 1092.84Z" fill="url(#paint15_linear_3009_7600)" fill-rule="evenodd"/>
<path clip-rule="evenodd" d="M571.219 1088.13L-426.823 -45.5095L-424.277 -47.7488L573.765 1085.89L571.219 1088.13Z" fill="white" fill-rule="evenodd"/>
<path clip-rule="evenodd" d="M571.219 1088.13L-426.823 -45.5095L-424.277 -47.7488L573.765 1085.89L571.219 1088.13Z" fill="url(#paint16_linear_3009_7600)" fill-rule="evenodd"/>
<path clip-rule="evenodd" d="M571.219 1088.13L-426.823 -45.5095L-424.277 -47.7488L573.765 1085.89L571.219 1088.13Z" fill="url(#paint17_linear_3009_7600)" fill-rule="evenodd"/>
<path clip-rule="evenodd" d="M573.866 1083.45L-398.545 -92.6236L-395.931 -94.783L576.48 1081.29L573.866 1083.45Z" fill="white" fill-rule="evenodd"/>
<path clip-rule="evenodd" d="M573.866 1083.45L-398.545 -92.6236L-395.931 -94.783L576.48 1081.29L573.866 1083.45Z" fill="url(#paint18_linear_3009_7600)" fill-rule="evenodd"/>
<path clip-rule="evenodd" d="M573.866 1083.45L-398.545 -92.6236L-395.931 -94.783L576.48 1081.29L573.866 1083.45Z" fill="url(#paint19_linear_3009_7600)" fill-rule="evenodd"/>
<path clip-rule="evenodd" d="M576.516 1078.76L-370.266 -139.738L-367.588 -141.817L579.194 1076.68L576.516 1078.76Z" fill="white" fill-rule="evenodd"/>
<path clip-rule="evenodd" d="M576.516 1078.76L-370.266 -139.738L-367.588 -141.817L579.194 1076.68L576.516 1078.76Z" fill="url(#paint20_linear_3009_7600)" fill-rule="evenodd"/>
<path clip-rule="evenodd" d="M576.516 1078.76L-370.266 -139.738L-367.588 -141.817L579.194 1076.68L576.516 1078.76Z" fill="url(#paint21_linear_3009_7600)" fill-rule="evenodd"/>
<path clip-rule="evenodd" d="M579.167 1074.08L-341.985 -186.852L-339.246 -188.851L581.906 1072.08L579.167 1074.08Z" fill="white" fill-rule="evenodd"/>
<path clip-rule="evenodd" d="M579.167 1074.08L-341.985 -186.852L-339.246 -188.851L581.906 1072.08L579.167 1074.08Z" fill="url(#paint22_linear_3009_7600)" fill-rule="evenodd"/>
<path clip-rule="evenodd" d="M579.167 1074.08L-341.985 -186.852L-339.246 -188.851L581.906 1072.08L579.167 1074.08Z" fill="url(#paint23_linear_3009_7600)" fill-rule="evenodd"/>
<path clip-rule="evenodd" d="M581.837 1069.37L-313.685 -233.997L-310.889 -235.915L584.633 1067.45L581.837 1069.37Z" fill="white" fill-rule="evenodd"/>
<path clip-rule="evenodd" d="M581.837 1069.37L-313.685 -233.997L-310.889 -235.915L584.633 1067.45L581.837 1069.37Z" fill="url(#paint24_linear_3009_7600)" fill-rule="evenodd"/>
<path clip-rule="evenodd" d="M581.837 1069.37L-313.685 -233.997L-310.889 -235.915L584.633 1067.45L581.837 1069.37Z" fill="url(#paint25_linear_3009_7600)" fill-rule="evenodd"/>
<path clip-rule="evenodd" d="M584.492 1064.69L-285.4 -281.111L-282.551 -282.95L587.341 1062.85L584.492 1064.69Z" fill="white" fill-rule="evenodd"/>
<path clip-rule="evenodd" d="M584.492 1064.69L-285.4 -281.111L-282.551 -282.95L587.341 1062.85L584.492 1064.69Z" fill="url(#paint26_linear_3009_7600)" fill-rule="evenodd"/>
<path clip-rule="evenodd" d="M584.492 1064.69L-285.4 -281.111L-282.551 -282.95L587.341 1062.85L584.492 1064.69Z" fill="url(#paint27_linear_3009_7600)" fill-rule="evenodd"/>
<path clip-rule="evenodd" d="M587.149 1060.01L-257.113 -328.224L-254.215 -329.984L590.047 1058.24L587.149 1060.01Z" fill="white" fill-rule="evenodd"/>
<path clip-rule="evenodd" d="M587.149 1060.01L-257.113 -328.224L-254.215 -329.984L590.047 1058.24L587.149 1060.01Z" fill="url(#paint28_linear_3009_7600)" fill-rule="evenodd"/>
<path clip-rule="evenodd" d="M587.149 1060.01L-257.113 -328.224L-254.215 -329.984L590.047 1058.24L587.149 1060.01Z" fill="url(#paint29_linear_3009_7600)" fill-rule="evenodd"/>
<path clip-rule="evenodd" d="M589.825 1055.29L-228.825 -375.337L-225.881 -377.02L592.769 1053.61L589.825 1055.29Z" fill="white" fill-rule="evenodd"/>
<path clip-rule="evenodd" d="M589.825 1055.29L-228.825 -375.337L-225.881 -377.02L592.769 1053.61L589.825 1055.29Z" fill="url(#paint30_linear_3009_7600)" fill-rule="evenodd"/>
<path clip-rule="evenodd" d="M589.825 1055.29L-228.825 -375.337L-225.881 -377.02L592.769 1053.61L589.825 1055.29Z" fill="url(#paint31_linear_3009_7600)" fill-rule="evenodd"/>
<path clip-rule="evenodd" d="M592.485 1050.61L-200.517 -422.48L-197.531 -424.085L595.471 1049.01L592.485 1050.61Z" fill="white" fill-rule="evenodd"/>
<path clip-rule="evenodd" d="M592.485 1050.61L-200.517 -422.48L-197.531 -424.085L595.471 1049.01L592.485 1050.61Z" fill="url(#paint32_linear_3009_7600)" fill-rule="evenodd"/>
<path clip-rule="evenodd" d="M592.485 1050.61L-200.517 -422.48L-197.531 -424.085L595.471 1049.01L592.485 1050.61Z" fill="url(#paint33_linear_3009_7600)" fill-rule="evenodd"/>
<path clip-rule="evenodd" d="M620.293 1002.56L-200.494 -422.437L-197.555 -424.128L623.232 1000.87L620.293 1002.56Z" fill="white" fill-rule="evenodd"/>
<path clip-rule="evenodd" d="M620.293 1002.56L-200.494 -422.437L-197.555 -424.128L623.232 1000.87L620.293 1002.56Z" fill="url(#paint34_linear_3009_7600)" fill-rule="evenodd"/>
<path clip-rule="evenodd" d="M620.293 1002.56L-200.494 -422.437L-197.555 -424.128L623.232 1000.87L620.293 1002.56Z" fill="url(#paint35_linear_3009_7600)" fill-rule="evenodd"/>
<path clip-rule="evenodd" d="M648.102 954.504L-200.468 -422.394L-197.58 -424.171L650.99 952.727L648.102 954.504Z" fill="white" fill-rule="evenodd"/>
<path clip-rule="evenodd" d="M648.102 954.504L-200.468 -422.394L-197.58 -424.171L650.99 952.727L648.102 954.504Z" fill="url(#paint36_linear_3009_7600)" fill-rule="evenodd"/>
<path clip-rule="evenodd" d="M648.102 954.504L-200.468 -422.394L-197.58 -424.171L650.99 952.727L648.102 954.504Z" fill="url(#paint37_linear_3009_7600)" fill-rule="evenodd"/>
<path clip-rule="evenodd" d="M675.914 906.45L-200.44 -422.35L-197.608 -424.215L678.746 904.585L675.914 906.45Z" fill="white" fill-rule="evenodd"/>
<path clip-rule="evenodd" d="M675.914 906.45L-200.44 -422.35L-197.608 -424.215L678.746 904.585L675.914 906.45Z" fill="url(#paint38_linear_3009_7600)" fill-rule="evenodd"/>
<path clip-rule="evenodd" d="M675.914 906.45L-200.44 -422.35L-197.608 -424.215L678.746 904.585L675.914 906.45Z" fill="url(#paint39_linear_3009_7600)" fill-rule="evenodd"/>
<path clip-rule="evenodd" d="M703.711 858.427L-200.41 -422.306L-197.639 -424.26L706.482 856.472L703.711 858.427Z" fill="white" fill-rule="evenodd"/>
<path clip-rule="evenodd" d="M703.711 858.427L-200.41 -422.306L-197.639 -424.26L706.482 856.472L703.711 858.427Z" fill="url(#paint40_linear_3009_7600)" fill-rule="evenodd"/>
<path clip-rule="evenodd" d="M703.711 858.427L-200.41 -422.306L-197.639 -424.26L706.482 856.472L703.711 858.427Z" fill="url(#paint41_linear_3009_7600)" fill-rule="evenodd"/>
<path clip-rule="evenodd" d="M731.528 810.373L-200.377 -422.261L-197.671 -424.304L734.233 808.33L731.528 810.373Z" fill="white" fill-rule="evenodd"/>
<path clip-rule="evenodd" d="M731.528 810.373L-200.377 -422.261L-197.671 -424.304L734.233 808.33L731.528 810.373Z" fill="url(#paint42_linear_3009_7600)" fill-rule="evenodd"/>
<path clip-rule="evenodd" d="M731.528 810.373L-200.377 -422.261L-197.671 -424.304L734.233 808.33L731.528 810.373Z" fill="url(#paint43_linear_3009_7600)" fill-rule="evenodd"/>
<path clip-rule="evenodd" d="M759.347 762.32L-200.342 -422.216L-197.707 -424.349L761.982 760.187L759.347 762.32Z" fill="white" fill-rule="evenodd"/>
<path clip-rule="evenodd" d="M759.347 762.32L-200.342 -422.216L-197.707 -424.349L761.982 760.187L759.347 762.32Z" fill="url(#paint44_linear_3009_7600)" fill-rule="evenodd"/>
<path clip-rule="evenodd" d="M759.347 762.32L-200.342 -422.216L-197.707 -424.349L761.982 760.187L759.347 762.32Z" fill="url(#paint45_linear_3009_7600)" fill-rule="evenodd"/>
<path clip-rule="evenodd" d="M787.168 714.267L-200.304 -422.171L-197.744 -424.394L789.728 712.044L787.168 714.267Z" fill="white" fill-rule="evenodd"/>
<path clip-rule="evenodd" d="M787.168 714.267L-200.304 -422.171L-197.744 -424.394L789.728 712.044L787.168 714.267Z" fill="url(#paint46_linear_3009_7600)" fill-rule="evenodd"/>
<path clip-rule="evenodd" d="M787.168 714.267L-200.304 -422.171L-197.744 -424.394L789.728 712.044L787.168 714.267Z" fill="url(#paint47_linear_3009_7600)" fill-rule="evenodd"/>
<path clip-rule="evenodd" d="M814.992 666.214L-200.264 -422.127L-197.784 -424.439L817.472 663.902L814.992 666.214Z" fill="white" fill-rule="evenodd"/>
<path clip-rule="evenodd" d="M814.992 666.214L-200.264 -422.127L-197.784 -424.439L817.472 663.902L814.992 666.214Z" fill="url(#paint48_linear_3009_7600)" fill-rule="evenodd"/>
<path clip-rule="evenodd" d="M814.992 666.214L-200.264 -422.127L-197.784 -424.439L817.472 663.902L814.992 666.214Z" fill="url(#paint49_linear_3009_7600)" fill-rule="evenodd"/>
<path clip-rule="evenodd" d="M842.818 618.16L-200.222 -422.083L-197.827 -424.483L845.213 615.76L842.818 618.16Z" fill="white" fill-rule="evenodd"/>
<path clip-rule="evenodd" d="M842.818 618.16L-200.222 -422.083L-197.827 -424.483L845.213 615.76L842.818 618.16Z" fill="url(#paint50_linear_3009_7600)" fill-rule="evenodd"/>
<path clip-rule="evenodd" d="M842.818 618.16L-200.222 -422.083L-197.827 -424.483L845.213 615.76L842.818 618.16Z" fill="url(#paint51_linear_3009_7600)" fill-rule="evenodd"/>
<path clip-rule="evenodd" d="M870.647 570.105L-200.177 -422.039L-197.872 -424.526L872.952 567.619L870.647 570.105Z" fill="white" fill-rule="evenodd"/>
<path clip-rule="evenodd" d="M870.647 570.105L-200.177 -422.039L-197.872 -424.526L872.952 567.619L870.647 570.105Z" fill="url(#paint52_linear_3009_7600)" fill-rule="evenodd"/>
<path clip-rule="evenodd" d="M870.647 570.105L-200.177 -422.039L-197.872 -424.526L872.952 567.619L870.647 570.105Z" fill="url(#paint53_linear_3009_7600)" fill-rule="evenodd"/>
<path clip-rule="evenodd" d="M898.479 522.05L-200.129 -421.997L-197.919 -424.568L900.689 519.479L898.479 522.05Z" fill="white" fill-rule="evenodd"/>
<path clip-rule="evenodd" d="M898.479 522.05L-200.129 -421.997L-197.919 -424.568L900.689 519.479L898.479 522.05Z" fill="url(#paint54_linear_3009_7600)" fill-rule="evenodd"/>
<path clip-rule="evenodd" d="M898.479 522.05L-200.129 -421.997L-197.919 -424.568L900.689 519.479L898.479 522.05Z" fill="url(#paint55_linear_3009_7600)" fill-rule="evenodd"/>
<path clip-rule="evenodd" d="M926.295 474.023L-200.08 -421.956L-197.969 -424.609L928.406 471.37L926.295 474.023Z" fill="white" fill-rule="evenodd"/>
<path clip-rule="evenodd" d="M926.295 474.023L-200.08 -421.956L-197.969 -424.609L928.406 471.37L926.295 474.023Z" fill="url(#paint56_linear_3009_7600)" fill-rule="evenodd"/>
<path clip-rule="evenodd" d="M926.295 474.023L-200.08 -421.956L-197.969 -424.609L928.406 471.37L926.295 474.023Z" fill="url(#paint57_linear_3009_7600)" fill-rule="evenodd"/>
<path clip-rule="evenodd" d="M954.13 425.965L-200.028 -421.917L-198.02 -424.649L956.138 423.233L954.13 425.965Z" fill="white" fill-rule="evenodd"/>
<path clip-rule="evenodd" d="M954.13 425.965L-200.028 -421.917L-198.02 -424.649L956.138 423.233L954.13 425.965Z" fill="url(#paint58_linear_3009_7600)" fill-rule="evenodd"/>
<path clip-rule="evenodd" d="M954.13 425.965L-200.028 -421.917L-198.02 -424.649L956.138 423.233L954.13 425.965Z" fill="url(#paint59_linear_3009_7600)" fill-rule="evenodd"/>
<path clip-rule="evenodd" d="M981.968 377.905L-199.974 -421.879L-198.074 -424.686L983.868 375.097L981.968 377.905Z" fill="white" fill-rule="evenodd"/>
<path clip-rule="evenodd" d="M981.968 377.905L-199.974 -421.879L-198.074 -424.686L983.868 375.097L981.968 377.905Z" fill="url(#paint60_linear_3009_7600)" fill-rule="evenodd"/>
<path clip-rule="evenodd" d="M981.968 377.905L-199.974 -421.879L-198.074 -424.686L983.868 375.097L981.968 377.905Z" fill="url(#paint61_linear_3009_7600)" fill-rule="evenodd"/>
<path clip-rule="evenodd" d="M1009.81 329.843L-199.919 -421.843L-198.13 -424.722L1011.6 326.963L1009.81 329.843Z" fill="white" fill-rule="evenodd"/>
<path clip-rule="evenodd" d="M1009.81 329.843L-199.919 -421.843L-198.13 -424.722L1011.6 326.963L1009.81 329.843Z" fill="url(#paint62_linear_3009_7600)" fill-rule="evenodd"/>
<path clip-rule="evenodd" d="M1009.81 329.843L-199.919 -421.843L-198.13 -424.722L1011.6 326.963L1009.81 329.843Z" fill="url(#paint63_linear_3009_7600)" fill-rule="evenodd"/>
<path clip-rule="evenodd" d="M1037.65 281.779L-199.862 -421.809L-198.186 -424.756L1039.32 278.831L1037.65 281.779Z" fill="white" fill-rule="evenodd"/>
<path clip-rule="evenodd" d="M1037.65 281.779L-199.862 -421.809L-198.186 -424.756L1039.32 278.831L1037.65 281.779Z" fill="url(#paint64_linear_3009_7600)" fill-rule="evenodd"/>
<path clip-rule="evenodd" d="M1037.65 281.779L-199.862 -421.809L-198.186 -424.756L1039.32 278.831L1037.65 281.779Z" fill="url(#paint65_linear_3009_7600)" fill-rule="evenodd"/>
<path clip-rule="evenodd" d="M550.054 1125.65L-653.009 331.439L-651.141 328.61L551.922 1122.82L550.054 1125.65Z" fill-rule="evenodd" stroke="black" stroke-miterlimit="10" stroke-width="2"/>
<path clip-rule="evenodd" d="M552.705 1120.94L-624.746 284.332L-622.782 281.568L554.669 1118.18L552.705 1120.94Z" fill-rule="evenodd" stroke="black" stroke-miterlimit="10" stroke-width="2"/>
<path clip-rule="evenodd" d="M555.339 1116.27L-596.481 237.223L-594.424 234.529L557.397 1113.57L555.339 1116.27Z" fill-rule="evenodd" stroke="black" stroke-miterlimit="10" stroke-width="2"/>
<path clip-rule="evenodd" d="M557.976 1111.59L-568.198 190.083L-566.05 187.46L560.123 1108.97L557.976 1111.59Z" fill-rule="evenodd" stroke="black" stroke-miterlimit="10" stroke-width="2"/>
<path clip-rule="evenodd" d="M560.614 1106.91L-539.93 142.973L-537.695 140.423L562.848 1104.36L560.614 1106.91Z" fill-rule="evenodd" stroke="black" stroke-miterlimit="10" stroke-width="2"/>
<path clip-rule="evenodd" d="M563.271 1102.2L-511.66 95.8605L-509.342 93.3862L565.589 1099.73L563.271 1102.2Z" fill-rule="evenodd" stroke="black" stroke-miterlimit="10" stroke-width="2"/>
<path clip-rule="evenodd" d="M565.913 1097.52L-483.389 48.7478L-480.991 46.3506L568.31 1095.12L565.913 1097.52Z" fill-rule="evenodd" stroke="black" stroke-miterlimit="10" stroke-width="2"/>
<path clip-rule="evenodd" d="M568.556 1092.84L-455.098 1.60437L-452.624 -0.714302L571.03 1090.52L568.556 1092.84Z" fill-rule="evenodd" stroke="black" stroke-miterlimit="10" stroke-width="2"/>
<path clip-rule="evenodd" d="M571.219 1088.13L-426.823 -45.5095L-424.277 -47.7488L573.765 1085.89L571.219 1088.13Z" fill-rule="evenodd" stroke="black" stroke-miterlimit="10" stroke-width="2"/>
<path clip-rule="evenodd" d="M573.866 1083.45L-398.545 -92.6236L-395.931 -94.783L576.48 1081.29L573.866 1083.45Z" fill-rule="evenodd" stroke="black" stroke-miterlimit="10" stroke-width="2"/>
<path clip-rule="evenodd" d="M576.516 1078.76L-370.266 -139.738L-367.588 -141.817L579.194 1076.68L576.516 1078.76Z" fill-rule="evenodd" stroke="black" stroke-miterlimit="10" stroke-width="2"/>
<path clip-rule="evenodd" d="M579.167 1074.08L-341.985 -186.852L-339.246 -188.851L581.906 1072.08L579.167 1074.08Z" fill-rule="evenodd" stroke="black" stroke-miterlimit="10" stroke-width="2"/>
<path clip-rule="evenodd" d="M581.837 1069.37L-313.685 -233.997L-310.889 -235.915L584.633 1067.45L581.837 1069.37Z" fill-rule="evenodd" stroke="black" stroke-miterlimit="10" stroke-width="2"/>
<path clip-rule="evenodd" d="M584.492 1064.69L-285.4 -281.111L-282.551 -282.95L587.341 1062.85L584.492 1064.69Z" fill-rule="evenodd" stroke="black" stroke-miterlimit="10" stroke-width="2"/>
<path clip-rule="evenodd" d="M587.149 1060.01L-257.113 -328.224L-254.215 -329.984L590.047 1058.24L587.149 1060.01Z" fill-rule="evenodd" stroke="black" stroke-miterlimit="10" stroke-width="2"/>
<path clip-rule="evenodd" d="M589.825 1055.29L-228.825 -375.337L-225.881 -377.02L592.769 1053.61L589.825 1055.29Z" fill-rule="evenodd" stroke="black" stroke-miterlimit="10" stroke-width="2"/>
<path clip-rule="evenodd" d="M592.485 1050.61L-200.517 -422.48L-197.531 -424.085L595.471 1049.01L592.485 1050.61Z" fill-rule="evenodd" stroke="black" stroke-miterlimit="10" stroke-width="2"/>
<path clip-rule="evenodd" d="M620.293 1002.56L-200.494 -422.437L-197.555 -424.128L623.232 1000.87L620.293 1002.56Z" fill-rule="evenodd" stroke="black" stroke-miterlimit="10" stroke-width="2"/>
<path clip-rule="evenodd" d="M648.102 954.504L-200.468 -422.394L-197.58 -424.171L650.99 952.727L648.102 954.504Z" fill-rule="evenodd" stroke="black" stroke-miterlimit="10" stroke-width="2"/>
<path clip-rule="evenodd" d="M675.914 906.45L-200.44 -422.35L-197.608 -424.215L678.746 904.585L675.914 906.45Z" fill-rule="evenodd" stroke="black" stroke-miterlimit="10" stroke-width="2"/>
<path clip-rule="evenodd" d="M703.711 858.427L-200.41 -422.306L-197.639 -424.26L706.482 856.472L703.711 858.427Z" fill-rule="evenodd" stroke="black" stroke-miterlimit="10" stroke-width="2"/>
<path clip-rule="evenodd" d="M731.528 810.373L-200.377 -422.261L-197.671 -424.304L734.233 808.33L731.528 810.373Z" fill-rule="evenodd" stroke="black" stroke-miterlimit="10" stroke-width="2"/>
<path clip-rule="evenodd" d="M759.347 762.32L-200.342 -422.216L-197.707 -424.349L761.982 760.187L759.347 762.32Z" fill-rule="evenodd" stroke="black" stroke-miterlimit="10" stroke-width="2"/>
<path clip-rule="evenodd" d="M787.168 714.267L-200.304 -422.171L-197.744 -424.394L789.728 712.044L787.168 714.267Z" fill-rule="evenodd" stroke="black" stroke-miterlimit="10" stroke-width="2"/>
<path clip-rule="evenodd" d="M814.992 666.214L-200.264 -422.127L-197.784 -424.439L817.472 663.902L814.992 666.214Z" fill-rule="evenodd" stroke="black" stroke-miterlimit="10" stroke-width="2"/>
<path clip-rule="evenodd" d="M842.818 618.16L-200.222 -422.083L-197.827 -424.483L845.213 615.76L842.818 618.16Z" fill-rule="evenodd" stroke="black" stroke-miterlimit="10" stroke-width="2"/>
<path clip-rule="evenodd" d="M870.647 570.105L-200.177 -422.039L-197.872 -424.526L872.952 567.619L870.647 570.105Z" fill-rule="evenodd" stroke="black" stroke-miterlimit="10" stroke-width="2"/>
<path clip-rule="evenodd" d="M898.479 522.05L-200.129 -421.997L-197.919 -424.568L900.689 519.479L898.479 522.05Z" fill-rule="evenodd" stroke="black" stroke-miterlimit="10" stroke-width="2"/>
<path clip-rule="evenodd" d="M926.295 474.023L-200.08 -421.956L-197.969 -424.609L928.406 471.37L926.295 474.023Z" fill-rule="evenodd" stroke="black" stroke-miterlimit="10" stroke-width="2"/>
<path clip-rule="evenodd" d="M954.13 425.965L-200.028 -421.917L-198.02 -424.649L956.138 423.233L954.13 425.965Z" fill-rule="evenodd" stroke="black" stroke-miterlimit="10" stroke-width="2"/>
<path clip-rule="evenodd" d="M981.968 377.905L-199.974 -421.879L-198.074 -424.686L983.868 375.097L981.968 377.905Z" fill-rule="evenodd" stroke="black" stroke-miterlimit="10" stroke-width="2"/>
<path clip-rule="evenodd" d="M1009.81 329.843L-199.919 -421.843L-198.13 -424.722L1011.6 326.963L1009.81 329.843Z" fill-rule="evenodd" stroke="black" stroke-miterlimit="10" stroke-width="2"/>
<path clip-rule="evenodd" d="M1037.65 281.779L-199.862 -421.809L-198.186 -424.756L1039.32 278.831L1037.65 281.779Z" fill-rule="evenodd" stroke="black" stroke-miterlimit="10" stroke-width="2"/>
</g>
<defs>
<linearGradient gradientUnits="userSpaceOnUse" id="paint0_linear_3009_7600" x1="289.517" x2="180.83" y1="192.547" y2="744.608">
<stop stop-color="#1D1D1B"/>
<stop offset="0.53125" stop-color="white"/>
</linearGradient>
<linearGradient gradientUnits="userSpaceOnUse" id="paint1_linear_3009_7600" x1="620.203" x2="-1015.46" y1="646.197" y2="-57.4517">
<stop/>
<stop offset="1" stop-opacity="0"/>
</linearGradient>
<linearGradient gradientUnits="userSpaceOnUse" id="paint2_linear_3009_7600" x1="289.517" x2="180.83" y1="192.547" y2="744.608">
<stop stop-color="#1D1D1B"/>
<stop offset="0.53125" stop-color="white"/>
</linearGradient>
<linearGradient gradientUnits="userSpaceOnUse" id="paint3_linear_3009_7600" x1="620.203" x2="-1015.46" y1="646.197" y2="-57.4517">
<stop/>
<stop offset="1" stop-opacity="0"/>
</linearGradient>
<linearGradient gradientUnits="userSpaceOnUse" id="paint4_linear_3009_7600" x1="289.517" x2="180.83" y1="192.547" y2="744.608">
<stop stop-color="#1D1D1B"/>
<stop offset="0.53125" stop-color="white"/>
</linearGradient>
<linearGradient gradientUnits="userSpaceOnUse" id="paint5_linear_3009_7600" x1="620.203" x2="-1015.46" y1="646.197" y2="-57.4517">
<stop/>
<stop offset="1" stop-opacity="0"/>
</linearGradient>
<linearGradient gradientUnits="userSpaceOnUse" id="paint6_linear_3009_7600" x1="289.517" x2="180.83" y1="192.547" y2="744.608">
<stop stop-color="#1D1D1B"/>
<stop offset="0.53125" stop-color="white"/>
</linearGradient>
<linearGradient gradientUnits="userSpaceOnUse" id="paint7_linear_3009_7600" x1="620.203" x2="-1015.46" y1="646.197" y2="-57.4517">
<stop/>
<stop offset="1" stop-opacity="0"/>
</linearGradient>
<linearGradient gradientUnits="userSpaceOnUse" id="paint8_linear_3009_7600" x1="289.517" x2="180.83" y1="192.547" y2="744.608">
<stop stop-color="#1D1D1B"/>
<stop offset="0.53125" stop-color="white"/>
</linearGradient>
<linearGradient gradientUnits="userSpaceOnUse" id="paint9_linear_3009_7600" x1="620.203" x2="-1015.46" y1="646.197" y2="-57.4517">
<stop/>
<stop offset="1" stop-opacity="0"/>
</linearGradient>
<linearGradient gradientUnits="userSpaceOnUse" id="paint10_linear_3009_7600" x1="289.517" x2="180.83" y1="192.547" y2="744.608">
<stop stop-color="#1D1D1B"/>
<stop offset="0.53125" stop-color="white"/>
</linearGradient>
<linearGradient gradientUnits="userSpaceOnUse" id="paint11_linear_3009_7600" x1="620.203" x2="-1015.46" y1="646.197" y2="-57.4517">
<stop/>
<stop offset="1" stop-opacity="0"/>
</linearGradient>
<linearGradient gradientUnits="userSpaceOnUse" id="paint12_linear_3009_7600" x1="289.517" x2="180.83" y1="192.547" y2="744.608">
<stop stop-color="#1D1D1B"/>
<stop offset="0.53125" stop-color="white"/>
</linearGradient>
<linearGradient gradientUnits="userSpaceOnUse" id="paint13_linear_3009_7600" x1="620.203" x2="-1015.46" y1="646.197" y2="-57.4517">
<stop/>
<stop offset="1" stop-opacity="0"/>
</linearGradient>
<linearGradient gradientUnits="userSpaceOnUse" id="paint14_linear_3009_7600" x1="289.517" x2="180.83" y1="192.547" y2="744.608">
<stop stop-color="#1D1D1B"/>
<stop offset="0.53125" stop-color="white"/>
</linearGradient>
<linearGradient gradientUnits="userSpaceOnUse" id="paint15_linear_3009_7600" x1="620.203" x2="-1015.46" y1="646.197" y2="-57.4517">
<stop/>
<stop offset="1" stop-opacity="0"/>
</linearGradient>
<linearGradient gradientUnits="userSpaceOnUse" id="paint16_linear_3009_7600" x1="289.517" x2="180.83" y1="192.547" y2="744.608">
<stop stop-color="#1D1D1B"/>
<stop offset="0.53125" stop-color="white"/>
</linearGradient>
<linearGradient gradientUnits="userSpaceOnUse" id="paint17_linear_3009_7600" x1="620.203" x2="-1015.46" y1="646.197" y2="-57.4517">
<stop/>
<stop offset="1" stop-opacity="0"/>
</linearGradient>
<linearGradient gradientUnits="userSpaceOnUse" id="paint18_linear_3009_7600" x1="289.517" x2="180.83" y1="192.547" y2="744.608">
<stop stop-color="#1D1D1B"/>
<stop offset="0.53125" stop-color="white"/>
</linearGradient>
<linearGradient gradientUnits="userSpaceOnUse" id="paint19_linear_3009_7600" x1="620.203" x2="-1015.46" y1="646.197" y2="-57.4517">
<stop/>
<stop offset="1" stop-opacity="0"/>
</linearGradient>
<linearGradient gradientUnits="userSpaceOnUse" id="paint20_linear_3009_7600" x1="289.517" x2="180.83" y1="192.547" y2="744.608">
<stop stop-color="#1D1D1B"/>
<stop offset="0.53125" stop-color="white"/>
</linearGradient>
<linearGradient gradientUnits="userSpaceOnUse" id="paint21_linear_3009_7600" x1="620.203" x2="-1015.46" y1="646.197" y2="-57.4517">
<stop/>
<stop offset="1" stop-opacity="0"/>
</linearGradient>
<linearGradient gradientUnits="userSpaceOnUse" id="paint22_linear_3009_7600" x1="289.517" x2="180.83" y1="192.547" y2="744.608">
<stop stop-color="#1D1D1B"/>
<stop offset="0.53125" stop-color="white"/>
</linearGradient>
<linearGradient gradientUnits="userSpaceOnUse" id="paint23_linear_3009_7600" x1="620.203" x2="-1015.46" y1="646.197" y2="-57.4517">
<stop/>
<stop offset="1" stop-opacity="0"/>
</linearGradient>
<linearGradient gradientUnits="userSpaceOnUse" id="paint24_linear_3009_7600" x1="289.517" x2="180.83" y1="192.547" y2="744.608">
<stop stop-color="#1D1D1B"/>
<stop offset="0.53125" stop-color="white"/>
</linearGradient>
<linearGradient gradientUnits="userSpaceOnUse" id="paint25_linear_3009_7600" x1="620.203" x2="-1015.46" y1="646.197" y2="-57.4517">
<stop/>
<stop offset="1" stop-opacity="0"/>
</linearGradient>
<linearGradient gradientUnits="userSpaceOnUse" id="paint26_linear_3009_7600" x1="289.517" x2="180.83" y1="192.547" y2="744.608">
<stop stop-color="#1D1D1B"/>
<stop offset="0.53125" stop-color="white"/>
</linearGradient>
<linearGradient gradientUnits="userSpaceOnUse" id="paint27_linear_3009_7600" x1="620.203" x2="-1015.46" y1="646.197" y2="-57.4517">
<stop/>
<stop offset="1" stop-opacity="0"/>
</linearGradient>
<linearGradient gradientUnits="userSpaceOnUse" id="paint28_linear_3009_7600" x1="289.517" x2="180.83" y1="192.547" y2="744.608">
<stop stop-color="#1D1D1B"/>
<stop offset="0.53125" stop-color="white"/>
</linearGradient>
<linearGradient gradientUnits="userSpaceOnUse" id="paint29_linear_3009_7600" x1="620.203" x2="-1015.46" y1="646.197" y2="-57.4517">
<stop/>
<stop offset="1" stop-opacity="0"/>
</linearGradient>
<linearGradient gradientUnits="userSpaceOnUse" id="paint30_linear_3009_7600" x1="289.517" x2="180.83" y1="192.547" y2="744.608">
<stop stop-color="#1D1D1B"/>
<stop offset="0.53125" stop-color="white"/>
</linearGradient>
<linearGradient gradientUnits="userSpaceOnUse" id="paint31_linear_3009_7600" x1="620.203" x2="-1015.46" y1="646.197" y2="-57.4517">
<stop/>
<stop offset="1" stop-opacity="0"/>
</linearGradient>
<linearGradient gradientUnits="userSpaceOnUse" id="paint32_linear_3009_7600" x1="289.517" x2="180.83" y1="192.547" y2="744.608">
<stop stop-color="#1D1D1B"/>
<stop offset="0.53125" stop-color="white"/>
</linearGradient>
<linearGradient gradientUnits="userSpaceOnUse" id="paint33_linear_3009_7600" x1="620.203" x2="-1015.46" y1="646.197" y2="-57.4517">
<stop/>
<stop offset="1" stop-opacity="0"/>
</linearGradient>
<linearGradient gradientUnits="userSpaceOnUse" id="paint34_linear_3009_7600" x1="289.517" x2="180.83" y1="192.547" y2="744.608">
<stop stop-color="#1D1D1B"/>
<stop offset="0.53125" stop-color="white"/>
</linearGradient>
<linearGradient gradientUnits="userSpaceOnUse" id="paint35_linear_3009_7600" x1="620.203" x2="-1015.46" y1="646.197" y2="-57.4517">
<stop/>
<stop offset="1" stop-opacity="0"/>
</linearGradient>
<linearGradient gradientUnits="userSpaceOnUse" id="paint36_linear_3009_7600" x1="289.517" x2="180.83" y1="192.547" y2="744.608">
<stop stop-color="#1D1D1B"/>
<stop offset="0.53125" stop-color="white"/>
</linearGradient>
<linearGradient gradientUnits="userSpaceOnUse" id="paint37_linear_3009_7600" x1="620.203" x2="-1015.46" y1="646.197" y2="-57.4517">
<stop/>
<stop offset="1" stop-opacity="0"/>
</linearGradient>
<linearGradient gradientUnits="userSpaceOnUse" id="paint38_linear_3009_7600" x1="289.517" x2="180.83" y1="192.547" y2="744.608">
<stop stop-color="#1D1D1B"/>
<stop offset="0.53125" stop-color="white"/>
</linearGradient>
<linearGradient gradientUnits="userSpaceOnUse" id="paint39_linear_3009_7600" x1="620.203" x2="-1015.46" y1="646.197" y2="-57.4517">
<stop/>
<stop offset="1" stop-opacity="0"/>
</linearGradient>
<linearGradient gradientUnits="userSpaceOnUse" id="paint40_linear_3009_7600" x1="289.517" x2="180.83" y1="192.547" y2="744.608">
<stop stop-color="#1D1D1B"/>
<stop offset="0.53125" stop-color="white"/>
</linearGradient>
<linearGradient gradientUnits="userSpaceOnUse" id="paint41_linear_3009_7600" x1="620.203" x2="-1015.46" y1="646.197" y2="-57.4517">
<stop/>
<stop offset="1" stop-opacity="0"/>
</linearGradient>
<linearGradient gradientUnits="userSpaceOnUse" id="paint42_linear_3009_7600" x1="289.517" x2="180.83" y1="192.547" y2="744.608">
<stop stop-color="#1D1D1B"/>
<stop offset="0.53125" stop-color="white"/>
</linearGradient>
<linearGradient gradientUnits="userSpaceOnUse" id="paint43_linear_3009_7600" x1="620.203" x2="-1015.46" y1="646.197" y2="-57.4517">
<stop/>
<stop offset="1" stop-opacity="0"/>
</linearGradient>
<linearGradient gradientUnits="userSpaceOnUse" id="paint44_linear_3009_7600" x1="289.517" x2="180.83" y1="192.547" y2="744.608">
<stop stop-color="#1D1D1B"/>
<stop offset="0.53125" stop-color="white"/>
</linearGradient>
<linearGradient gradientUnits="userSpaceOnUse" id="paint45_linear_3009_7600" x1="620.203" x2="-1015.46" y1="646.197" y2="-57.4517">
<stop/>
<stop offset="1" stop-opacity="0"/>
</linearGradient>
<linearGradient gradientUnits="userSpaceOnUse" id="paint46_linear_3009_7600" x1="289.517" x2="180.83" y1="192.547" y2="744.608">
<stop stop-color="#1D1D1B"/>
<stop offset="0.53125" stop-color="white"/>
</linearGradient>
<linearGradient gradientUnits="userSpaceOnUse" id="paint47_linear_3009_7600" x1="620.203" x2="-1015.46" y1="646.197" y2="-57.4517">
<stop/>
<stop offset="1" stop-opacity="0"/>
</linearGradient>
<linearGradient gradientUnits="userSpaceOnUse" id="paint48_linear_3009_7600" x1="289.517" x2="180.83" y1="192.547" y2="744.608">
<stop stop-color="#1D1D1B"/>
<stop offset="0.53125" stop-color="white"/>
</linearGradient>
<linearGradient gradientUnits="userSpaceOnUse" id="paint49_linear_3009_7600" x1="620.203" x2="-1015.46" y1="646.197" y2="-57.4517">
<stop/>
<stop offset="1" stop-opacity="0"/>
</linearGradient>
<linearGradient gradientUnits="userSpaceOnUse" id="paint50_linear_3009_7600" x1="289.517" x2="180.83" y1="192.547" y2="744.608">
<stop stop-color="#1D1D1B"/>
<stop offset="0.53125" stop-color="white"/>
</linearGradient>
<linearGradient gradientUnits="userSpaceOnUse" id="paint51_linear_3009_7600" x1="620.203" x2="-1015.46" y1="646.197" y2="-57.4517">
<stop/>
<stop offset="1" stop-opacity="0"/>
</linearGradient>
<linearGradient gradientUnits="userSpaceOnUse" id="paint52_linear_3009_7600" x1="289.517" x2="180.83" y1="192.547" y2="744.608">
<stop stop-color="#1D1D1B"/>
<stop offset="0.53125" stop-color="white"/>
</linearGradient>
<linearGradient gradientUnits="userSpaceOnUse" id="paint53_linear_3009_7600" x1="620.203" x2="-1015.46" y1="646.197" y2="-57.4517">
<stop/>
<stop offset="1" stop-opacity="0"/>
</linearGradient>
<linearGradient gradientUnits="userSpaceOnUse" id="paint54_linear_3009_7600" x1="289.517" x2="180.83" y1="192.547" y2="744.608">
<stop stop-color="#1D1D1B"/>
<stop offset="0.53125" stop-color="white"/>
</linearGradient>
<linearGradient gradientUnits="userSpaceOnUse" id="paint55_linear_3009_7600" x1="620.203" x2="-1015.46" y1="646.197" y2="-57.4517">
<stop/>
<stop offset="1" stop-opacity="0"/>
</linearGradient>
<linearGradient gradientUnits="userSpaceOnUse" id="paint56_linear_3009_7600" x1="289.517" x2="180.83" y1="192.547" y2="744.608">
<stop stop-color="#1D1D1B"/>
<stop offset="0.53125" stop-color="white"/>
</linearGradient>
<linearGradient gradientUnits="userSpaceOnUse" id="paint57_linear_3009_7600" x1="620.203" x2="-1015.46" y1="646.197" y2="-57.4517">
<stop/>
<stop offset="1" stop-opacity="0"/>
</linearGradient>
<linearGradient gradientUnits="userSpaceOnUse" id="paint58_linear_3009_7600" x1="289.517" x2="180.83" y1="192.547" y2="744.608">
<stop stop-color="#1D1D1B"/>
<stop offset="0.53125" stop-color="white"/>
</linearGradient>
<linearGradient gradientUnits="userSpaceOnUse" id="paint59_linear_3009_7600" x1="620.203" x2="-1015.46" y1="646.197" y2="-57.4517">
<stop/>
<stop offset="1" stop-opacity="0"/>
</linearGradient>
<linearGradient gradientUnits="userSpaceOnUse" id="paint60_linear_3009_7600" x1="289.517" x2="180.83" y1="192.547" y2="744.608">
<stop stop-color="#1D1D1B"/>
<stop offset="0.53125" stop-color="white"/>
</linearGradient>
<linearGradient gradientUnits="userSpaceOnUse" id="paint61_linear_3009_7600" x1="620.203" x2="-1015.46" y1="646.197" y2="-57.4517">
<stop/>
<stop offset="1" stop-opacity="0"/>
</linearGradient>
<linearGradient gradientUnits="userSpaceOnUse" id="paint62_linear_3009_7600" x1="289.517" x2="180.83" y1="192.547" y2="744.608">
<stop stop-color="#1D1D1B"/>
<stop offset="0.53125" stop-color="white"/>
</linearGradient>
<linearGradient gradientUnits="userSpaceOnUse" id="paint63_linear_3009_7600" x1="620.203" x2="-1015.46" y1="646.197" y2="-57.4517">
<stop/>
<stop offset="1" stop-opacity="0"/>
</linearGradient>
<linearGradient gradientUnits="userSpaceOnUse" id="paint64_linear_3009_7600" x1="289.517" x2="180.83" y1="192.547" y2="744.608">
<stop stop-color="#1D1D1B"/>
<stop offset="0.53125" stop-color="white"/>
</linearGradient>
<linearGradient gradientUnits="userSpaceOnUse" id="paint65_linear_3009_7600" x1="620.203" x2="-1015.46" y1="646.197" y2="-57.4517">
<stop/>
<stop offset="1" stop-opacity="0"/>
</linearGradient>
</defs>
</svg>